<mxfile host="app.diagrams.net" modified="2023-05-26T23:14:40.775Z" agent="Mozilla/5.0 (Windows NT 10.0; Win64; x64) AppleWebKit/537.36 (KHTML, like Gecko) Chrome/113.0.0.0 Safari/537.36" etag="vPqSV3-rYGmQFNgaBLjp" version="21.3.4" type="github">
  <diagram id="C5RBs43oDa-KdzZeNtuy" name="Page-1">
    <mxGraphModel dx="868" dy="739" grid="1" gridSize="10" guides="1" tooltips="1" connect="1" arrows="1" fold="1" page="1" pageScale="1" pageWidth="827" pageHeight="1169" math="0" shadow="0">
      <root>
        <mxCell id="WIyWlLk6GJQsqaUBKTNV-0" />
        <mxCell id="WIyWlLk6GJQsqaUBKTNV-1" parent="WIyWlLk6GJQsqaUBKTNV-0" />
        <mxCell id="m_pyyqOd8DZYAp8mrjOk-0" value="&lt;span style=&quot;font-weight: normal;&quot;&gt;&lt;font color=&quot;#203850&quot;&gt;Staff&lt;/font&gt;&lt;/span&gt;" style="swimlane;horizontal=0;whiteSpace=wrap;html=1;strokeColor=#E66418;" vertex="1" parent="WIyWlLk6GJQsqaUBKTNV-1">
          <mxGeometry x="24" y="40" width="780" height="220" as="geometry">
            <mxRectangle x="100" y="10" width="40" height="150" as="alternateBounds" />
          </mxGeometry>
        </mxCell>
        <mxCell id="m_pyyqOd8DZYAp8mrjOk-3" value="Website Content" style="edgeStyle=orthogonalEdgeStyle;rounded=0;orthogonalLoop=1;jettySize=auto;html=1;entryX=0;entryY=0.5;entryDx=0;entryDy=0;" edge="1" parent="m_pyyqOd8DZYAp8mrjOk-0" source="m_pyyqOd8DZYAp8mrjOk-1" target="m_pyyqOd8DZYAp8mrjOk-2">
          <mxGeometry relative="1" as="geometry" />
        </mxCell>
        <mxCell id="m_pyyqOd8DZYAp8mrjOk-1" value="&lt;font color=&quot;#203850&quot;&gt;Create Conference Website&lt;/font&gt;" style="rounded=0;whiteSpace=wrap;html=1;fillColor=#d5e8d4;strokeColor=#82b366;" vertex="1" parent="m_pyyqOd8DZYAp8mrjOk-0">
          <mxGeometry x="46" y="20" width="120" height="60" as="geometry" />
        </mxCell>
        <mxCell id="m_pyyqOd8DZYAp8mrjOk-7" value="Evaluation" style="edgeStyle=orthogonalEdgeStyle;rounded=0;orthogonalLoop=1;jettySize=auto;html=1;entryX=0;entryY=0.5;entryDx=0;entryDy=0;" edge="1" parent="m_pyyqOd8DZYAp8mrjOk-0" source="m_pyyqOd8DZYAp8mrjOk-2" target="m_pyyqOd8DZYAp8mrjOk-6">
          <mxGeometry relative="1" as="geometry" />
        </mxCell>
        <mxCell id="m_pyyqOd8DZYAp8mrjOk-2" value="&lt;font color=&quot;#203850&quot;&gt;Preview&lt;/font&gt;" style="rounded=0;whiteSpace=wrap;html=1;fillColor=#d5e8d4;strokeColor=#82b366;" vertex="1" parent="m_pyyqOd8DZYAp8mrjOk-0">
          <mxGeometry x="276" y="20" width="120" height="60" as="geometry" />
        </mxCell>
        <mxCell id="m_pyyqOd8DZYAp8mrjOk-4" value="&lt;font color=&quot;#203850&quot;&gt;Export&lt;/font&gt;" style="rounded=0;whiteSpace=wrap;html=1;fillColor=#d5e8d4;strokeColor=#82b366;" vertex="1" parent="m_pyyqOd8DZYAp8mrjOk-0">
          <mxGeometry x="636" y="20" width="120" height="60" as="geometry" />
        </mxCell>
        <mxCell id="m_pyyqOd8DZYAp8mrjOk-8" value="Yes" style="edgeStyle=orthogonalEdgeStyle;rounded=0;orthogonalLoop=1;jettySize=auto;html=1;" edge="1" parent="m_pyyqOd8DZYAp8mrjOk-0" source="m_pyyqOd8DZYAp8mrjOk-6" target="m_pyyqOd8DZYAp8mrjOk-4">
          <mxGeometry relative="1" as="geometry" />
        </mxCell>
        <mxCell id="m_pyyqOd8DZYAp8mrjOk-10" style="edgeStyle=orthogonalEdgeStyle;rounded=0;orthogonalLoop=1;jettySize=auto;html=1;" edge="1" parent="m_pyyqOd8DZYAp8mrjOk-0" source="m_pyyqOd8DZYAp8mrjOk-6" target="m_pyyqOd8DZYAp8mrjOk-9">
          <mxGeometry relative="1" as="geometry">
            <Array as="points">
              <mxPoint x="538" y="140" />
            </Array>
          </mxGeometry>
        </mxCell>
        <mxCell id="m_pyyqOd8DZYAp8mrjOk-11" value="No" style="edgeLabel;html=1;align=center;verticalAlign=middle;resizable=0;points=[];" vertex="1" connectable="0" parent="m_pyyqOd8DZYAp8mrjOk-10">
          <mxGeometry x="0.0841" y="2" relative="1" as="geometry">
            <mxPoint as="offset" />
          </mxGeometry>
        </mxCell>
        <mxCell id="m_pyyqOd8DZYAp8mrjOk-6" value="Website Acceptable?" style="rhombus;whiteSpace=wrap;html=1;" vertex="1" parent="m_pyyqOd8DZYAp8mrjOk-0">
          <mxGeometry x="486" y="10" width="104" height="80" as="geometry" />
        </mxCell>
        <mxCell id="m_pyyqOd8DZYAp8mrjOk-13" style="edgeStyle=orthogonalEdgeStyle;rounded=0;orthogonalLoop=1;jettySize=auto;html=1;entryX=0.183;entryY=1.017;entryDx=0;entryDy=0;entryPerimeter=0;" edge="1" parent="m_pyyqOd8DZYAp8mrjOk-0" source="m_pyyqOd8DZYAp8mrjOk-9" target="m_pyyqOd8DZYAp8mrjOk-2">
          <mxGeometry relative="1" as="geometry" />
        </mxCell>
        <mxCell id="m_pyyqOd8DZYAp8mrjOk-14" value="Edited Website Content" style="edgeLabel;html=1;align=center;verticalAlign=middle;resizable=0;points=[];" vertex="1" connectable="0" parent="m_pyyqOd8DZYAp8mrjOk-13">
          <mxGeometry x="0.176" y="-2" relative="1" as="geometry">
            <mxPoint as="offset" />
          </mxGeometry>
        </mxCell>
        <mxCell id="m_pyyqOd8DZYAp8mrjOk-9" value="&lt;font color=&quot;#203850&quot;&gt;Edit Conference Website&lt;/font&gt;" style="rounded=0;whiteSpace=wrap;html=1;fillColor=#d5e8d4;strokeColor=#82b366;" vertex="1" parent="m_pyyqOd8DZYAp8mrjOk-0">
          <mxGeometry x="478" y="135" width="120" height="60" as="geometry" />
        </mxCell>
      </root>
    </mxGraphModel>
  </diagram>
</mxfile>
